<svg width="178" height="64" viewBox="0 0 178 64" fill="none" xmlns="http://www.w3.org/2000/svg">
<g clip-path="url(#clip0_2005_21)">
<path d="M48.8798 48.3687L34.2075 63.041C32.9884 64.2604 31.0115 64.2604 29.7923 63.041L14.9103 48.1593V16.756L28.5271 47.2489H35.3355L48.8798 16.756V48.3687ZM8.39171 41.6406L0.958771 34.2076C-0.260427 32.9884 -0.260427 31.0115 0.958771 29.7923L8.39171 22.3594V41.6406ZM63.0409 29.7923C64.2604 31.0115 64.2604 32.9884 63.0409 34.2076L55.7605 41.488V22.5119L63.0409 29.7923ZM29.7923 0.9588C31.0115 -0.260396 32.9884 -0.260396 34.2075 0.9588L44.5037 11.2548L32.0762 40.0784L19.4664 11.2844L29.7923 0.9588Z" fill="url(#paint0_linear_2005_21)"/>
</g>
<path d="M78 27.8V37H75.6V27.8H72.384V25.832H81.216V27.8H78ZM86.3938 37.192C85.7538 37.192 85.1778 37.096 84.6658 36.904C84.1538 36.7013 83.7164 36.4133 83.3538 36.04C83.0018 35.6667 82.7298 35.2133 82.5378 34.68C82.3458 34.1467 82.2498 33.544 82.2498 32.872C82.2498 32.2 82.3458 31.5973 82.5378 31.064C82.7298 30.5307 83.0018 30.0773 83.3538 29.704C83.7164 29.3307 84.1538 29.048 84.6658 28.856C85.1778 28.6533 85.7538 28.552 86.3938 28.552C87.0338 28.552 87.6098 28.6533 88.1218 28.856C88.6338 29.048 89.0658 29.3307 89.4178 29.704C89.7804 30.0773 90.0578 30.5307 90.2498 31.064C90.4418 31.5973 90.5378 32.2 90.5378 32.872C90.5378 33.544 90.4418 34.1467 90.2498 34.68C90.0578 35.2133 89.7804 35.6667 89.4178 36.04C89.0658 36.4133 88.6338 36.7013 88.1218 36.904C87.6098 37.096 87.0338 37.192 86.3938 37.192ZM86.3938 35.432C86.9271 35.432 87.3431 35.2667 87.6418 34.936C87.9404 34.6053 88.0898 34.136 88.0898 33.528V32.216C88.0898 31.608 87.9404 31.1387 87.6418 30.808C87.3431 30.4773 86.9271 30.312 86.3938 30.312C85.8604 30.312 85.4444 30.4773 85.1458 30.808C84.8471 31.1387 84.6978 31.608 84.6978 32.216V33.528C84.6978 34.136 84.8471 34.6053 85.1458 34.936C85.4444 35.2667 85.8604 35.432 86.3938 35.432ZM97.4755 35.496H97.3635C97.1502 35.9973 96.8515 36.408 96.4675 36.728C96.0942 37.0373 95.5768 37.192 94.9155 37.192C94.4568 37.192 94.0355 37.1067 93.6515 36.936C93.2782 36.7653 92.9528 36.504 92.6755 36.152C92.4088 35.8 92.1955 35.352 92.0355 34.808C91.8862 34.264 91.8115 33.6187 91.8115 32.872C91.8115 32.1253 91.8862 31.48 92.0355 30.936C92.1955 30.392 92.4088 29.944 92.6755 29.592C92.9528 29.24 93.2782 28.9787 93.6515 28.808C94.0355 28.6373 94.4568 28.552 94.9155 28.552C95.2462 28.552 95.5395 28.5947 95.7955 28.68C96.0515 28.7653 96.2755 28.8827 96.4675 29.032C96.6702 29.1813 96.8408 29.3627 96.9795 29.576C97.1288 29.7787 97.2568 30.0027 97.3635 30.248H97.4755V25.16H99.8435V37H97.4755V35.496ZM95.9395 35.352C96.3555 35.352 96.7128 35.2507 97.0115 35.048C97.3208 34.8453 97.4755 34.5253 97.4755 34.088V31.656C97.4755 31.2187 97.3208 30.8987 97.0115 30.696C96.7128 30.4933 96.3555 30.392 95.9395 30.392C95.4062 30.392 94.9955 30.5573 94.7075 30.888C94.4195 31.208 94.2755 31.656 94.2755 32.232V33.512C94.2755 34.088 94.4195 34.5413 94.7075 34.872C94.9955 35.192 95.4062 35.352 95.9395 35.352ZM105.581 37.192C104.941 37.192 104.365 37.096 103.853 36.904C103.341 36.7013 102.904 36.4133 102.541 36.04C102.189 35.6667 101.917 35.2133 101.725 34.68C101.533 34.1467 101.437 33.544 101.437 32.872C101.437 32.2 101.533 31.5973 101.725 31.064C101.917 30.5307 102.189 30.0773 102.541 29.704C102.904 29.3307 103.341 29.048 103.853 28.856C104.365 28.6533 104.941 28.552 105.581 28.552C106.221 28.552 106.797 28.6533 107.309 28.856C107.821 29.048 108.253 29.3307 108.605 29.704C108.968 30.0773 109.245 30.5307 109.437 31.064C109.629 31.5973 109.725 32.2 109.725 32.872C109.725 33.544 109.629 34.1467 109.437 34.68C109.245 35.2133 108.968 35.6667 108.605 36.04C108.253 36.4133 107.821 36.7013 107.309 36.904C106.797 37.096 106.221 37.192 105.581 37.192ZM105.581 35.432C106.115 35.432 106.531 35.2667 106.829 34.936C107.128 34.6053 107.277 34.136 107.277 33.528V32.216C107.277 31.608 107.128 31.1387 106.829 30.808C106.531 30.4773 106.115 30.312 105.581 30.312C105.048 30.312 104.632 30.4773 104.333 30.808C104.035 31.1387 103.885 31.608 103.885 32.216V33.528C103.885 34.136 104.035 34.6053 104.333 34.936C104.632 35.2667 105.048 35.432 105.581 35.432ZM110.855 37V28.744H112.759V29.96H112.871C112.999 29.576 113.18 29.2453 113.415 28.968C113.66 28.6907 114.002 28.552 114.439 28.552C115.239 28.552 115.73 29.0213 115.911 29.96H116.007C116.071 29.768 116.151 29.5867 116.247 29.416C116.343 29.2453 116.46 29.096 116.599 28.968C116.738 28.84 116.903 28.7387 117.095 28.664C117.287 28.5893 117.511 28.552 117.767 28.552C118.919 28.552 119.495 29.4 119.495 31.096V37H117.591V31.336C117.591 30.952 117.522 30.6853 117.383 30.536C117.255 30.376 117.084 30.296 116.871 30.296C116.668 30.296 116.492 30.3653 116.343 30.504C116.204 30.632 116.135 30.8347 116.135 31.112V37H114.215V31.336C114.215 30.952 114.151 30.6853 114.023 30.536C113.906 30.376 113.74 30.296 113.527 30.296C113.314 30.296 113.132 30.3653 112.983 30.504C112.834 30.632 112.759 30.8347 112.759 31.112V37H110.855ZM127.761 37C127.27 37 126.875 36.8773 126.577 36.632C126.278 36.376 126.102 36.0133 126.049 35.544H125.969C125.819 36.088 125.521 36.4987 125.073 36.776C124.635 37.0533 124.097 37.192 123.457 37.192C122.657 37.192 122.011 36.9787 121.521 36.552C121.041 36.1147 120.801 35.5067 120.801 34.728C120.801 33.864 121.115 33.224 121.745 32.808C122.374 32.392 123.297 32.184 124.513 32.184H125.841V31.768C125.841 31.2773 125.723 30.9093 125.489 30.664C125.265 30.408 124.881 30.28 124.337 30.28C123.835 30.28 123.43 30.376 123.121 30.568C122.811 30.76 122.545 31.0107 122.321 31.32L121.025 30.168C121.302 29.6987 121.734 29.3147 122.321 29.016C122.918 28.7067 123.681 28.552 124.609 28.552C125.739 28.552 126.619 28.8133 127.249 29.336C127.889 29.848 128.209 30.6267 128.209 31.672V35.288H129.121V37H127.761ZM124.353 35.64C124.769 35.64 125.121 35.5387 125.409 35.336C125.697 35.1333 125.841 34.84 125.841 34.456V33.464H124.577C123.606 33.464 123.121 33.7893 123.121 34.44V34.76C123.121 35.048 123.233 35.2667 123.457 35.416C123.681 35.5653 123.979 35.64 124.353 35.64ZM134.266 37.192C133.349 37.192 132.549 37.0533 131.867 36.776C131.195 36.4987 130.688 36.12 130.347 35.64L131.674 34.408C131.995 34.76 132.368 35.0373 132.795 35.24C133.232 35.432 133.728 35.528 134.283 35.528C134.752 35.528 135.12 35.4587 135.387 35.32C135.653 35.1707 135.787 34.9467 135.787 34.648C135.787 34.4133 135.696 34.2533 135.515 34.168C135.333 34.072 135.083 33.9973 134.763 33.944L133.435 33.736C133.061 33.6827 132.715 33.6027 132.395 33.496C132.075 33.3787 131.797 33.224 131.562 33.032C131.328 32.84 131.141 32.6053 131.003 32.328C130.864 32.0507 130.795 31.7147 130.795 31.32C130.795 30.456 131.125 29.7787 131.787 29.288C132.448 28.7973 133.376 28.552 134.571 28.552C135.381 28.552 136.069 28.664 136.635 28.888C137.211 29.1013 137.669 29.4107 138.01 29.816L136.827 31.16C136.581 30.8933 136.267 30.6693 135.883 30.488C135.499 30.3067 135.035 30.216 134.491 30.216C133.573 30.216 133.115 30.4933 133.115 31.048C133.115 31.2933 133.205 31.464 133.387 31.56C133.568 31.6453 133.819 31.7147 134.139 31.768L135.451 31.976C135.824 32.0293 136.171 32.1147 136.491 32.232C136.811 32.3387 137.088 32.488 137.323 32.68C137.568 32.872 137.76 33.1067 137.899 33.384C138.037 33.6613 138.107 33.9973 138.107 34.392C138.107 35.256 137.771 35.9387 137.099 36.44C136.437 36.9413 135.493 37.192 134.266 37.192ZM144.596 37C143.743 37 143.108 36.776 142.692 36.328C142.276 35.88 142.068 35.3093 142.068 34.616V30.584H139.828V28.744H141.284C141.636 28.744 141.887 28.6747 142.036 28.536C142.186 28.3973 142.26 28.1413 142.26 27.768V25.832H144.436V28.744H147.652V30.584H144.436V35.16H147.652V37H144.596ZM153.774 37.192C152.387 37.192 151.337 36.808 150.622 36.04C149.907 35.272 149.55 34.2267 149.55 32.904C149.55 32.232 149.641 31.6293 149.822 31.096C150.014 30.552 150.281 30.0933 150.622 29.72C150.974 29.336 151.395 29.048 151.886 28.856C152.387 28.6533 152.947 28.552 153.566 28.552C154.185 28.552 154.739 28.6533 155.23 28.856C155.721 29.048 156.137 29.3253 156.478 29.688C156.819 30.0507 157.081 30.4933 157.262 31.016C157.454 31.528 157.55 32.104 157.55 32.744V33.448H151.902V33.592C151.902 34.1253 152.067 34.5573 152.398 34.888C152.729 35.208 153.214 35.368 153.854 35.368C154.345 35.368 154.766 35.2773 155.118 35.096C155.47 34.904 155.774 34.6533 156.03 34.344L157.31 35.736C156.99 36.1307 156.542 36.472 155.966 36.76C155.39 37.048 154.659 37.192 153.774 37.192ZM153.582 30.248C153.07 30.248 152.659 30.408 152.35 30.728C152.051 31.0373 151.902 31.4587 151.902 31.992V32.12H155.23V31.992C155.23 31.448 155.081 31.0213 154.782 30.712C154.494 30.4027 154.094 30.248 153.582 30.248ZM159.528 35.16H161.432V30.584H159.528V28.744H163.8V31.08H163.912C163.986 30.7813 164.088 30.4933 164.216 30.216C164.354 29.928 164.525 29.6773 164.728 29.464C164.941 29.24 165.197 29.064 165.496 28.936C165.794 28.808 166.146 28.744 166.552 28.744H167.336V30.92H165.576C164.989 30.92 164.546 31.096 164.248 31.448C163.949 31.7893 163.8 32.2107 163.8 32.712V35.16H166.52V37H159.528V35.16ZM174.818 28.744H177.234L173.346 38.328C173.1 38.936 172.775 39.4 172.37 39.72C171.964 40.04 171.41 40.2 170.706 40.2H169.074V38.36H171.058L171.57 36.952L168.242 28.744H170.786L171.986 32.216L172.738 34.616H172.866L173.586 32.216L174.818 28.744Z" fill="#FD9A00"/>
<defs>
<linearGradient id="paint0_linear_2005_21" x1="-1.69501e-06" y1="3.64546e-05" x2="64" y2="64" gradientUnits="userSpaceOnUse">
<stop stop-color="#FFC873"/>
<stop offset="1" stop-color="#FD9A00"/>
</linearGradient>
<clipPath id="clip0_2005_21">
<rect width="64" height="64" fill="white"/>
</clipPath>
</defs>
</svg>
