<svg width="205" height="205" viewBox="0 0 205 205" fill="none" xmlns="http://www.w3.org/2000/svg">
  <path d="M156.568 154.931L109.571 201.928C105.666 205.834 99.3337 205.834 95.4285 201.928L47.7595 154.26V53.6716L91.3758 151.344H113.184L156.568 53.6716V154.931ZM26.8797 133.38L3.07107 109.571C-0.834175 105.666 -0.834175 99.3337 3.07107 95.4285L26.8797 71.6199V133.38ZM201.928 95.4285C205.834 99.3337 205.834 105.666 201.928 109.571L178.608 132.891V72.1082L201.928 95.4285ZM95.4285 3.07104C99.3337 -0.834198 105.666 -0.834197 109.571 3.07104L142.551 36.0505L102.744 128.376L62.3533 36.1453L95.4285 3.07104Z" fill="url(#paint0_linear_2001_26)"/>
  <defs>
    <linearGradient id="paint0_linear_2001_26" x1="0" y1="0" x2="205" y2="205" gradientUnits="userSpaceOnUse">
      <stop offset="0" stop-color="#FFC873"/>
      <stop offset="1" stop-color="#FD9A00"/>
    </linearGradient>
  </defs>
</svg>
